<?xml version="1.0" encoding="UTF-8"?>
<!DOCTYPE svg PUBLIC "-//W3C//DTD SVG 1.1//EN" "http://www.w3.org/Graphics/SVG/1.1/DTD/svg11.dtd">
<svg xmlns="http://www.w3.org/2000/svg" version="1.1" width="512px" height="512px" style="shape-rendering:geometricPrecision; text-rendering:geometricPrecision; image-rendering:optimizeQuality; fill-rule:evenodd; clip-rule:evenodd" xmlns:xlink="http://www.w3.org/1999/xlink">
<g><path style="opacity:0.975" fill="#000000" d="M 511.5,121.5 C 511.5,125.5 511.5,129.5 511.5,133.5C 508.932,138.564 504.932,142.064 499.5,144C 471.5,144.667 443.5,144.667 415.5,144C 410.09,142.257 406.256,138.757 404,133.5C 405.073,118.422 398.24,109.922 383.5,108C 298.167,107.333 212.833,107.333 127.5,108C 118.979,108.211 112.813,112.044 109,119.5C 107.346,208.465 107.013,297.465 108,386.5C 110.112,396.997 116.612,402.497 127.5,403C 212.833,403.667 298.167,403.667 383.5,403C 394.388,402.497 400.888,396.997 403,386.5C 403.333,313.167 403.667,239.833 404,166.5C 409.62,155.309 418.12,152.475 429.5,158C 432.433,160.264 434.6,163.098 436,166.5C 436.5,233.166 436.667,299.833 436.5,366.5C 457.503,366.333 478.503,366.5 499.5,367C 504.932,368.936 508.932,372.436 511.5,377.5C 511.5,381.5 511.5,385.5 511.5,389.5C 508.609,395.874 503.609,399.374 496.5,400C 475.825,400.167 455.159,400.667 434.5,401.5C 428.467,417.699 417.301,428.699 401,434.5C 400.667,452.167 400.333,469.833 400,487.5C 396.672,500.42 388.505,504.92 375.5,501C 372.333,499.167 369.833,496.667 368,493.5C 366.538,474.568 366.038,455.568 366.5,436.5C 356.5,436.5 346.5,436.5 336.5,436.5C 336.948,455.222 336.448,473.888 335,492.5C 328.921,502.743 320.421,505.243 309.5,500C 306.457,497.407 304.29,494.24 303,490.5C 302.5,472.503 302.333,454.503 302.5,436.5C 292.5,436.5 282.5,436.5 272.5,436.5C 272.667,454.17 272.5,471.836 272,489.5C 268.551,499.932 261.384,504.099 250.5,502C 244.26,500.092 240.427,495.925 239,489.5C 238.5,471.836 238.333,454.17 238.5,436.5C 228.5,436.5 218.5,436.5 208.5,436.5C 208.667,454.503 208.5,472.503 208,490.5C 201.983,502.948 192.817,505.781 180.5,499C 178.383,497.269 176.883,495.102 176,492.5C 174.552,473.888 174.052,455.222 174.5,436.5C 164.5,436.5 154.5,436.5 144.5,436.5C 144.962,455.568 144.462,474.568 143,493.5C 138.27,501.193 131.437,504.026 122.5,502C 115.686,499.542 111.853,494.709 111,487.5C 110.667,469.833 110.333,452.167 110,434.5C 93.6994,428.699 82.5327,417.699 76.5,401.5C 55.8414,400.667 35.1747,400.167 14.5,400C 7.39059,399.374 2.39059,395.874 -0.5,389.5C -0.5,385.5 -0.5,381.5 -0.5,377.5C 2.0678,372.436 6.0678,368.936 11.5,367C 32.4974,366.5 53.4974,366.333 74.5,366.5C 74.5,292.5 74.5,218.5 74.5,144.5C 53.4974,144.667 32.4974,144.5 11.5,144C 6.0678,142.064 2.0678,138.564 -0.5,133.5C -0.5,129.5 -0.5,125.5 -0.5,121.5C 2.39059,115.126 7.39059,111.626 14.5,111C 35.1747,110.833 55.8414,110.333 76.5,109.5C 82.5327,93.3007 93.6994,82.3007 110,76.5C 110.333,58.8333 110.667,41.1667 111,23.5C 111.853,16.2913 115.686,11.458 122.5,9C 131.437,6.97398 138.27,9.80731 143,17.5C 144.462,36.4318 144.962,55.4318 144.5,74.5C 154.5,74.5 164.5,74.5 174.5,74.5C 174.052,55.7782 174.552,37.1116 176,18.5C 182.079,8.2571 190.579,5.7571 201.5,11C 204.543,13.5933 206.71,16.76 208,20.5C 208.5,38.4969 208.667,56.4969 208.5,74.5C 218.5,74.5 228.5,74.5 238.5,74.5C 238.333,56.8302 238.5,39.1635 239,21.5C 242.449,11.0678 249.616,6.90118 260.5,9C 266.74,10.9081 270.573,15.0747 272,21.5C 272.5,39.1635 272.667,56.8302 272.5,74.5C 282.5,74.5 292.5,74.5 302.5,74.5C 302.333,56.4969 302.5,38.4969 303,20.5C 309.017,8.05222 318.183,5.21888 330.5,12C 332.617,13.7309 334.117,15.8976 335,18.5C 336.448,37.1116 336.948,55.7782 336.5,74.5C 346.5,74.5 356.5,74.5 366.5,74.5C 366.038,55.4318 366.538,36.4318 368,17.5C 372.73,9.80731 379.563,6.97398 388.5,9C 395.314,11.458 399.147,16.2913 400,23.5C 400.333,41.1667 400.667,58.8333 401,76.5C 417.301,82.3007 428.467,93.3007 434.5,109.5C 455.159,110.333 475.825,110.833 496.5,111C 503.609,111.626 508.609,115.126 511.5,121.5 Z M 201.5,234.5 C 202.75,234.577 203.583,235.244 204,236.5C 209.139,249.42 213.972,262.42 218.5,275.5C 207.833,275.5 197.167,275.5 186.5,275.5C 191.3,261.768 196.3,248.102 201.5,234.5 Z"/></g>
<g><path style="opacity:0.966" fill="#000000" d="M 197.5,169.5 C 207.734,168.196 214.9,172.196 219,181.5C 237.196,227.755 255.196,274.088 273,320.5C 274.007,335.825 266.841,342.658 251.5,341C 247.026,338.857 243.526,335.69 241,331.5C 238.162,324.316 235.329,317.15 232.5,310C 212.492,309.167 192.492,309.334 172.5,310.5C 169.293,318.955 165.793,327.289 162,335.5C 153,343.5 144,343.5 135,335.5C 131.332,329.825 130.665,323.825 133,317.5C 150.863,272.245 168.529,226.912 186,181.5C 188.019,175.65 191.852,171.65 197.5,169.5 Z M 201.5,234.5 C 196.3,248.102 191.3,261.768 186.5,275.5C 197.167,275.5 207.833,275.5 218.5,275.5C 213.972,262.42 209.139,249.42 204,236.5C 203.583,235.244 202.75,234.577 201.5,234.5 Z"/></g>
<g><path style="opacity:0.964" fill="#000000" d="M 297.5,169.5 C 316.17,169.333 334.836,169.5 353.5,170C 364.88,176.005 367.714,184.839 362,196.5C 356.656,201.82 350.156,204.154 342.5,203.5C 342.5,238.167 342.5,272.833 342.5,307.5C 360.873,307.352 367.706,316.019 363,333.5C 360.548,336.821 357.382,339.321 353.5,341C 334.833,341.667 316.167,341.667 297.5,341C 285.873,335.795 282.706,327.295 288,315.5C 293.397,309.312 300.23,306.645 308.5,307.5C 308.5,272.833 308.5,238.167 308.5,203.5C 290.944,203.792 283.778,195.459 287,178.5C 289.489,174.168 292.989,171.168 297.5,169.5 Z"/></g>
<g><path style="opacity:0.948" fill="#000000" d="M -0.5,197.5 C -0.5,193.5 -0.5,189.5 -0.5,185.5C 2.14364,180.034 6.47697,176.534 12.5,175C 25.1667,174.333 37.8333,174.333 50.5,175C 59.2403,176.951 63.9069,182.451 64.5,191.5C 64.3364,200.343 60.003,205.843 51.5,208C 38.1667,208.667 24.8333,208.667 11.5,208C 6.0678,206.064 2.0678,202.564 -0.5,197.5 Z"/></g>
<g><path style="opacity:0.948" fill="#000000" d="M 511.5,185.5 C 511.5,189.5 511.5,193.5 511.5,197.5C 508.932,202.564 504.932,206.064 499.5,208C 486.167,208.667 472.833,208.667 459.5,208C 448.345,203.856 444.512,196.022 448,184.5C 450.565,179.293 454.732,176.126 460.5,175C 473.167,174.333 485.833,174.333 498.5,175C 504.523,176.534 508.856,180.034 511.5,185.5 Z"/></g>
<g><path style="opacity:0.949" fill="#000000" d="M -0.5,261.5 C -0.5,257.5 -0.5,253.5 -0.5,249.5C 2.17521,243.996 6.50854,240.496 12.5,239C 25.5,238.333 38.5,238.333 51.5,239C 62.6549,243.144 66.4883,250.978 63,262.5C 60.673,267.423 56.8397,270.59 51.5,272C 38.5,272.667 25.5,272.667 12.5,272C 6.50854,270.504 2.17521,267.004 -0.5,261.5 Z"/></g>
<g><path style="opacity:0.949" fill="#000000" d="M 511.5,249.5 C 511.5,253.5 511.5,257.5 511.5,261.5C 508.825,267.004 504.491,270.504 498.5,272C 485.5,272.667 472.5,272.667 459.5,272C 448.345,267.856 444.512,260.022 448,248.5C 450.327,243.577 454.16,240.41 459.5,239C 472.5,238.333 485.5,238.333 498.5,239C 504.491,240.496 508.825,243.996 511.5,249.5 Z"/></g>
<g><path style="opacity:0.948" fill="#000000" d="M -0.5,325.5 C -0.5,321.5 -0.5,317.5 -0.5,313.5C 2.0678,308.436 6.0678,304.936 11.5,303C 24.8333,302.333 38.1667,302.333 51.5,303C 62.6549,307.144 66.4883,314.978 63,326.5C 60.4345,331.707 56.2679,334.874 50.5,336C 37.8333,336.667 25.1667,336.667 12.5,336C 6.47697,334.466 2.14364,330.966 -0.5,325.5 Z"/></g>
<g><path style="opacity:0.948" fill="#000000" d="M 511.5,313.5 C 511.5,317.5 511.5,321.5 511.5,325.5C 508.856,330.966 504.523,334.466 498.5,336C 485.833,336.667 473.167,336.667 460.5,336C 451.76,334.049 447.093,328.549 446.5,319.5C 446.664,310.657 450.997,305.157 459.5,303C 472.833,302.333 486.167,302.333 499.5,303C 504.932,304.936 508.932,308.436 511.5,313.5 Z"/></g>
</svg>
